<?xml version="1.0" encoding="UTF-8" standalone="no"?>
<!-- Created with Inkscape (http://www.inkscape.org/) -->

<svg
   width="60mm"
   height="60mm"
   viewBox="0 0 60 60"
   version="1.1"
   id="svg5"
   inkscape:version="1.1.2 (b8e25be833, 2022-02-05)"
   sodipodi:docname="connect.svg"
   xmlns:inkscape="http://www.inkscape.org/namespaces/inkscape"
   xmlns:sodipodi="http://sodipodi.sourceforge.net/DTD/sodipodi-0.dtd"
   xmlns="http://www.w3.org/2000/svg"
   xmlns:svg="http://www.w3.org/2000/svg">
  <sodipodi:namedview
     id="namedview7"
     pagecolor="#ffffff"
     bordercolor="#666666"
     borderopacity="1.0"
     inkscape:pageshadow="2"
     inkscape:pageopacity="0.0"
     inkscape:pagecheckerboard="0"
     inkscape:document-units="mm"
     showgrid="false"
     width="100mm"
     inkscape:zoom="0.46235269"
     inkscape:cx="535.30563"
     inkscape:cy="509.35142"
     inkscape:window-width="1366"
     inkscape:window-height="706"
     inkscape:window-x="-8"
     inkscape:window-y="-8"
     inkscape:window-maximized="1"
     inkscape:current-layer="layer1" />
  <defs
     id="defs2" />
  <g
     inkscape:label="图层 1"
     inkscape:groupmode="layer"
     id="layer1">
    <path
       style="fill:#000000;stroke-width:0.264583"
       id="path21"
       d="" />
    <path
       style="fill:#000000;stroke-width:0.352778"
       d="M 10.825283,38.396253 8.0671973,33.104583 H 6.2122114 4.3572254 v -1.23472 -1.23472 h 1.929016 1.9290159 l 2.7118797,-5.64445 2.71188,-5.64444 h 4.354937 4.354938 v 2.11667 2.11666 h 2.116671 2.11666 v 8.64306 8.64305 h -2.11666 -2.116671 v 1.41111 1.41112 H 17.96613 13.583368 Z m 15.40416,-6.17361 v -8.29028 h -1.94027 -1.940281 v 8.29028 8.29028 h 1.940281 1.94027 z m 10.93612,10.05416 v -1.41111 h -2.11667 -2.11667 v -8.64305 -8.64306 h 2.11667 2.11667 v -2.11666 -2.11667 h 4.39104 4.39104 l 2.9291,5.63831 2.9291,5.63831 1.67569,0.006 1.67569,0.006 v 1.23472 1.23472 h -2.06271 -2.0627 l -2.53101,5.29167 -2.531,5.29167 h -4.40212 -4.40212 z m 0,-10.05416 v -8.29028 h -1.94028 -1.94028 v 8.29028 8.29028 h 1.94028 1.94028 z"
       id="path254" />
  </g>
</svg>
