<?xml version="1.0" encoding="UTF-8" standalone="no"?>
<!-- Created with Inkscape (http://www.inkscape.org/) -->

<svg
   width="60mm"
   height="60mm"
   viewBox="0 0 60 60"
   version="1.1"
   id="svg5"
   inkscape:version="1.1.2 (b8e25be833, 2022-02-05)"
   sodipodi:docname="disconnect.svg"
   xmlns:inkscape="http://www.inkscape.org/namespaces/inkscape"
   xmlns:sodipodi="http://sodipodi.sourceforge.net/DTD/sodipodi-0.dtd"
   xmlns="http://www.w3.org/2000/svg"
   xmlns:svg="http://www.w3.org/2000/svg">
  <sodipodi:namedview
     id="namedview7"
     pagecolor="#ffffff"
     bordercolor="#666666"
     borderopacity="1.0"
     inkscape:pageshadow="2"
     inkscape:pageopacity="0.0"
     inkscape:pagecheckerboard="0"
     inkscape:document-units="mm"
     showgrid="false"
     width="100mm"
     inkscape:zoom="0.46235269"
     inkscape:cx="535.30563"
     inkscape:cy="509.35142"
     inkscape:window-width="1366"
     inkscape:window-height="706"
     inkscape:window-x="-8"
     inkscape:window-y="-8"
     inkscape:window-maximized="1"
     inkscape:current-layer="layer1" />
  <defs
     id="defs2" />
  <g
     inkscape:label="图层 1"
     inkscape:groupmode="layer"
     id="layer1">
    <path
       style="fill:#000000;stroke-width:0.264583"
       id="path21"
       d="" />
    <path
       style="fill:#000000;stroke-width:0.352778"
       d="M 16.165408,35.866182 13.407323,30.574516 H 9.4356696 5.4640166 v -1.234722 -1.234722 h 4.045683 4.0456824 l 2.71188,-5.644445 2.71188,-5.644444 h 4.354938 4.354937 v 2.116666 2.116667 h 3.175 3.175 v -2.116667 -2.116666 h 4.391042 4.391043 l 2.929096,5.638309 2.929097,5.63831 3.792361,0.0061 3.792361,0.0061 v 1.234722 1.234722 h -4.179376 -4.179376 l -2.531004,5.291666 -2.531001,5.291667 h -4.402121 -4.402122 v -1.411111 -1.411111 h -3.175 -3.175 v 1.411111 1.411111 h -4.382762 -4.382762 z m 17.873609,-6.173611 v -8.290277 h -3.175 -3.175 v 8.290277 8.290278 h 3.175 3.175 z"
       id="path555" />
  </g>
</svg>
